<svg width="25" height="25" viewBox="0 0 25 25" fill="none" xmlns="http://www.w3.org/2000/svg">
<path d="M22.4214 15.0697C22.2941 15.037 22.1616 15.0297 22.0315 15.0484C21.9014 15.067 21.7762 15.1112 21.6633 15.1783C21.5503 15.2455 21.4517 15.3343 21.3731 15.4397C21.2946 15.545 21.2376 15.6649 21.2056 15.7924C21.0225 16.4987 20.5881 17.1141 19.9839 17.5231C19.3796 17.9322 18.6469 18.1068 17.9231 18.0143C17.1993 17.9219 16.534 17.5686 16.052 17.0208C15.57 16.473 15.3043 15.7682 15.3047 15.0385V14.0385H22.3047C22.436 14.0385 22.5661 14.0127 22.6874 13.9624C22.8088 13.9122 22.919 13.8385 23.0119 13.7457C23.1047 13.6528 23.1784 13.5425 23.2286 13.4212C23.2789 13.2999 23.3047 13.1698 23.3047 13.0385C23.3047 12.3819 23.1754 11.7317 22.9241 11.1251C22.6728 10.5184 22.3045 9.96723 21.8402 9.50294C21.3759 9.03865 20.8247 8.67035 20.2181 8.41908C19.6115 8.1678 18.9613 8.03847 18.3047 8.03847C17.6481 8.03847 16.9979 8.1678 16.3913 8.41908C15.7846 8.67035 15.2334 9.03865 14.7692 9.50294C14.3049 9.96723 13.9366 10.5184 13.6853 11.1251C13.434 11.7317 13.3047 12.3819 13.3047 13.0385V15.0385C13.3043 16.2556 13.748 17.4311 14.5527 18.3444C15.3573 19.2577 16.4675 19.846 17.6751 19.9989C18.8826 20.1518 20.1044 19.8589 21.1113 19.175C22.1182 18.4912 22.841 17.4634 23.144 16.2846C23.1764 16.1573 23.1834 16.025 23.1646 15.8951C23.1458 15.7651 23.1016 15.6402 23.0345 15.5274C22.9674 15.4145 22.8787 15.3161 22.7735 15.2375C22.6683 15.159 22.5486 15.102 22.4214 15.0697ZM18.3047 10.0385C19.0981 10.0388 19.8592 10.3522 20.4228 10.9105C20.7358 11.2306 20.9744 11.6157 21.1215 12.0385H15.489C15.6944 11.4552 16.0754 10.9499 16.5795 10.5918C17.0837 10.2337 17.6863 10.0404 18.3047 10.0385ZM16.3047 7.03848H20.3047C20.5699 7.03848 20.8243 6.93312 21.0118 6.74558C21.1993 6.55805 21.3047 6.30369 21.3047 6.03848C21.3047 5.77326 21.1993 5.5189 21.0118 5.33137C20.8243 5.14383 20.5699 5.03848 20.3047 5.03848H16.3047C16.0395 5.03848 15.7851 5.14383 15.5976 5.33137C15.41 5.5189 15.3047 5.77326 15.3047 6.03848C15.3047 6.30369 15.41 6.55805 15.5976 6.74558C15.7851 6.93312 16.0395 7.03848 16.3047 7.03848ZM10.2227 11.7556C10.7564 11.188 11.112 10.4764 11.2457 9.70876C11.3793 8.94116 11.2851 8.15122 10.9746 7.43659C10.6642 6.72197 10.1511 6.11397 9.49891 5.68777C8.84667 5.26156 8.08383 5.03583 7.30469 5.03848H2.30469C2.17336 5.03844 2.0433 5.06428 1.92196 5.11452C1.80062 5.16477 1.69037 5.23842 1.5975 5.33129C1.50464 5.42415 1.43098 5.53441 1.38074 5.65575C1.33049 5.77709 1.30465 5.90714 1.30469 6.03848V19.0385C1.30465 19.1698 1.3305 19.2999 1.38074 19.4212C1.43098 19.5425 1.50464 19.6528 1.5975 19.7457C1.69037 19.8385 1.80062 19.9122 1.92196 19.9624C2.0433 20.0127 2.17336 20.0385 2.30469 20.0385H7.80469C8.77782 20.0402 9.72521 19.7259 10.5043 19.1428C11.2834 18.5598 11.8521 17.7394 12.1248 16.8053C12.3975 15.8711 12.3595 14.8737 12.0165 13.963C11.6734 13.0524 11.0439 12.2777 10.2227 11.7556ZM3.30469 7.03848H7.30469C7.83512 7.03848 8.34383 7.24919 8.7189 7.62426C9.09397 7.99933 9.30469 8.50804 9.30469 9.03847C9.30469 9.56891 9.09397 10.0776 8.7189 10.4527C8.34383 10.8278 7.83512 11.0385 7.30469 11.0385H3.30469V7.03848ZM7.80469 18.0385H3.30469V13.0385H7.80469C8.46773 13.0385 9.10361 13.3019 9.57245 13.7707C10.0413 14.2395 10.3047 14.8754 10.3047 15.5385C10.3047 16.2015 10.0413 16.8374 9.57245 17.3062C9.10361 17.7751 8.46773 18.0385 7.80469 18.0385Z" fill="#121212"/>
</svg>
