<svg width="25" height="25" viewBox="0 0 25 25" fill="none" xmlns="http://www.w3.org/2000/svg">
<path fill-rule="evenodd" clip-rule="evenodd" d="M19.2433 5.3644C17.9686 4.75051 16.6017 4.29822 15.1724 4.03917C15.1464 4.03417 15.1204 4.04667 15.107 4.07166C14.9312 4.39983 14.7364 4.82797 14.6001 5.16448C13.0628 4.92293 11.5335 4.92293 10.0278 5.16448C9.89137 4.82049 9.68957 4.39983 9.51298 4.07166C9.49957 4.0475 9.47357 4.03501 9.44754 4.03917C8.01909 4.29739 6.65213 4.74968 5.37661 5.3644C5.36557 5.3694 5.35611 5.37773 5.34982 5.38855C2.75699 9.45419 2.04671 13.4199 2.39515 17.3364C2.39673 17.3556 2.40697 17.3739 2.42116 17.3856C4.13184 18.7041 5.78892 19.5046 7.41523 20.0352C7.44126 20.0435 7.46884 20.0335 7.4854 20.011C7.87011 19.4596 8.21304 18.8782 8.50706 18.2668C8.5207 18.2387 8.72354 17.8132 8.79248 17.6256C11.0804 18.3724 13.4536 18.384 15.7264 17.6606C15.8178 17.8086 15.9969 18.0907 15.9969 18.0907C15.9969 18.0907 16.7506 19.4588 17.1282 20.0102C17.144 20.0335 17.1724 20.0435 17.1984 20.0352C18.8326 19.5046 20.4897 18.7041 22.2004 17.3856C22.2153 17.3739 22.2248 17.3564 22.2264 17.3373C22.6434 12.8093 21.5279 8.87613 19.2693 5.38938C19.2638 5.37773 19.2544 5.3694 19.2433 5.3644ZM8.99585 14.9517C8.01042 14.9517 7.19844 14.0021 7.19844 12.836C7.19844 11.6698 7.99467 10.7203 8.99585 10.7203C10.0049 10.7203 10.809 11.6782 10.7932 12.836C10.7932 14.0021 9.99701 14.9517 8.99585 14.9517ZM15.6415 14.9517C14.656 14.9517 13.8441 14.0021 13.8441 12.836C13.8441 11.6698 14.6403 10.7203 15.6415 10.7203C16.6505 10.7203 17.4546 11.6782 17.4389 12.836C17.4389 14.0021 16.6505 14.9517 15.6415 14.9517Z" stroke="#121212" stroke-width="1.5"/>
</svg>
