<svg width="25" height="25" viewBox="0 0 25 25" fill="none" xmlns="http://www.w3.org/2000/svg">
<path d="M9.77404 18.3273C5.15865 19.6827 5.15865 16.0682 3.3125 15.6164M16.2356 21.0381V17.5411C16.2702 17.1102 16.2107 16.6771 16.0611 16.2705C15.9115 15.8638 15.6752 15.493 15.3679 15.1827C18.2663 14.8664 21.3125 13.7911 21.3125 8.85744C21.3123 7.59584 20.8165 6.38263 19.9279 5.4689C20.3487 4.36515 20.3189 3.14514 19.8448 2.0623C19.8448 2.0623 18.7556 1.74603 16.2356 3.39964C14.1199 2.83834 11.8897 2.83834 9.77404 3.39964C7.25404 1.74603 6.16481 2.0623 6.16481 2.0623C5.69069 3.14514 5.66094 4.36515 6.08173 5.4689C5.18646 6.38941 4.69021 7.61359 4.69712 8.88454C4.69712 13.7821 7.74327 14.8574 10.6417 15.2098C10.338 15.517 10.1038 15.8834 9.95432 16.285C9.80483 16.6867 9.7434 17.1147 9.77404 17.5411V21.0381" stroke="#121212" stroke-width="1.5" stroke-linecap="round" stroke-linejoin="round"/>
</svg>
