<svg width="25" height="25" viewBox="0 0 25 25" fill="none" xmlns="http://www.w3.org/2000/svg">
<path d="M12.3828 3.83922C15.0552 3.83922 15.3717 3.85094 16.4227 3.89782C17.3994 3.9408 17.9269 4.1049 18.2785 4.24164C18.7434 4.42136 19.0794 4.64016 19.4272 4.98788C19.7788 5.33951 19.9937 5.67161 20.1734 6.13654C20.3101 6.48817 20.4742 7.01953 20.5172 7.99237C20.5641 9.04727 20.5758 9.36374 20.5758 12.0322C20.5758 14.7046 20.5641 15.0211 20.5172 16.0721C20.4742 17.0488 20.3101 17.5763 20.1734 17.9279C19.9937 18.3928 19.7749 18.7288 19.4272 19.0766C19.0755 19.4282 18.7434 19.6431 18.2785 19.8228C17.9269 19.9596 17.3955 20.1236 16.4227 20.1666C15.3678 20.2135 15.0513 20.2252 12.3828 20.2252C9.71042 20.2252 9.39395 20.2135 8.34296 20.1666C7.36621 20.1236 6.83876 19.9596 6.48713 19.8228C6.0222 19.6431 5.68619 19.4243 5.33847 19.0766C4.98684 18.7249 4.77195 18.3928 4.59223 17.9279C4.45548 17.5763 4.29139 17.0449 4.24841 16.0721C4.20153 15.0172 4.18981 14.7007 4.18981 12.0322C4.18981 9.35983 4.20153 9.04336 4.24841 7.99237C4.29139 7.01562 4.45548 6.48817 4.59223 6.13654C4.77195 5.67161 4.99074 5.33561 5.33847 4.98788C5.6901 4.63625 6.0222 4.42136 6.48713 4.24164C6.83876 4.1049 7.37012 3.9408 8.34296 3.89782C9.39395 3.85094 9.71042 3.83922 12.3828 3.83922ZM12.3828 2.03809C9.66744 2.03809 9.32753 2.04981 8.26092 2.09669C7.19821 2.14358 6.4676 2.31548 5.83466 2.56163C5.17437 2.81949 4.61567 3.1594 4.06088 3.7181C3.50217 4.2729 3.16226 4.8316 2.9044 5.48798C2.65826 6.12482 2.48635 6.85153 2.43946 7.91423C2.39258 8.98476 2.38086 9.32467 2.38086 12.04C2.38086 14.7554 2.39258 15.0953 2.43946 16.1619C2.48635 17.2246 2.65826 17.9553 2.9044 18.5882C3.16226 19.2485 3.50217 19.8072 4.06088 20.362C4.61567 20.9168 5.17437 21.2606 5.83075 21.5145C6.4676 21.7607 7.1943 21.9326 8.25701 21.9795C9.32362 22.0264 9.66353 22.0381 12.3789 22.0381C15.0943 22.0381 15.4342 22.0264 16.5008 21.9795C17.5635 21.9326 18.2941 21.7607 18.9271 21.5145C19.5834 21.2606 20.1421 20.9168 20.6969 20.362C21.2517 19.8072 21.5956 19.2485 21.8495 18.5921C22.0956 17.9553 22.2676 17.2286 22.3144 16.1658C22.3613 15.0992 22.373 14.7593 22.373 12.0439C22.373 9.32857 22.3613 8.98866 22.3144 7.92205C22.2676 6.85934 22.0956 6.12873 21.8495 5.49579C21.6034 4.8316 21.2635 4.2729 20.7048 3.7181C20.15 3.16331 19.5913 2.81949 18.9349 2.56553C18.298 2.31939 17.5713 2.14748 16.5086 2.1006C15.4381 2.04981 15.0982 2.03809 12.3828 2.03809Z" fill="#121212"/>
<path d="M12.3819 6.90234C9.54537 6.90234 7.24414 9.20357 7.24414 12.0401C7.24414 14.8766 9.54537 17.1778 12.3819 17.1778C15.2184 17.1778 17.5196 14.8766 17.5196 12.0401C17.5196 9.20357 15.2184 6.90234 12.3819 6.90234ZM12.3819 15.3727C10.5417 15.3727 9.04918 13.8803 9.04918 12.0401C9.04918 10.1999 10.5417 8.70738 12.3819 8.70738C14.2221 8.70738 15.7145 10.1999 15.7145 12.0401C15.7145 13.8803 14.2221 15.3727 12.3819 15.3727Z" fill="#121212"/>
<path d="M18.9223 6.6997C18.9223 7.36389 18.3832 7.89915 17.7229 7.89915C17.0587 7.89915 16.5234 7.35998 16.5234 6.6997C16.5234 6.03551 17.0626 5.50024 17.7229 5.50024C18.3832 5.50024 18.9223 6.03941 18.9223 6.6997Z" fill="#121212"/>
</svg>
