<svg width="25" height="25" viewBox="0 0 25 25" fill="none" xmlns="http://www.w3.org/2000/svg">
<path d="M10.3125 22.0381V10.0381H14.3125V12.0381C14.3125 11.3714 15.1125 10.0381 18.3125 10.0381C21.5125 10.0381 22.3125 12.7048 22.3125 14.0381V22.0381H18.3125V16.0381C18.3125 15.5381 17.9125 14.5381 16.3125 14.5381C14.7125 14.5381 14.3125 15.5381 14.3125 16.0381V22.0381H10.3125Z" stroke="#121212" stroke-width="1.5" stroke-linejoin="round"/>
<path d="M7.3125 10.0381H3.3125V22.0381H7.3125V10.0381Z" stroke="#121212" stroke-width="1.5" stroke-linejoin="round"/>
<path d="M5.3125 2.53809C3.7125 2.53809 3.3125 3.53809 3.3125 4.53809C3.3125 5.78837 3.3125 7.03809 5.3125 7.03809C7.3125 7.03809 7.3125 5.78837 7.3125 4.53809C7.3125 3.53809 6.9125 2.53809 5.3125 2.53809Z" stroke="#121212" stroke-width="1.5" stroke-linejoin="round"/>
</svg>
