<svg width="25" height="25" viewBox="0 0 25 25" fill="none" xmlns="http://www.w3.org/2000/svg">
<g clip-path="url(#clip0_15474_22860)">
<path d="M22.8531 6.45809C22.7343 5.9835 22.4924 5.54866 22.1517 5.19749C21.8111 4.84633 21.3838 4.59127 20.9131 4.45809C19.1931 4.03809 12.3131 4.03809 12.3131 4.03809C12.3131 4.03809 5.43307 4.03809 3.71307 4.49809C3.24232 4.63127 2.81505 4.88633 2.47442 5.23749C2.13379 5.58866 1.89186 6.0235 1.77307 6.49809C1.45829 8.24364 1.30431 10.0144 1.31307 11.7881C1.30185 13.5751 1.45584 15.3594 1.77307 17.1181C1.90403 17.5779 2.15138 17.9962 2.49122 18.3326C2.83105 18.6689 3.25189 18.9119 3.71307 19.0381C5.43307 19.4981 12.3131 19.4981 12.3131 19.4981C12.3131 19.4981 19.1931 19.4981 20.9131 19.0381C21.3838 18.9049 21.8111 18.6498 22.1517 18.2987C22.4924 17.9475 22.7343 17.5127 22.8531 17.0381C23.1654 15.3057 23.3194 13.5484 23.3131 11.7881C23.3243 10.001 23.1703 8.21678 22.8531 6.45809V6.45809Z" stroke="#121212" stroke-width="1.5" stroke-linecap="round" stroke-linejoin="round"/>
<path d="M10.0625 15.0581L15.8125 11.7881L10.0625 8.51807V15.0581Z" stroke="#121212" stroke-width="1.5" stroke-linecap="round" stroke-linejoin="round"/>
</g>
<defs>
<clipPath id="clip0_15474_22860">
<rect width="24" height="24" fill="white" transform="translate(0.3125 0.0380859)"/>
</clipPath>
</defs>
</svg>
