<svg width="180" height="53" viewBox="0 0 180 53" fill="none" xmlns="http://www.w3.org/2000/svg">
<path fill-rule="evenodd" clip-rule="evenodd" d="M177.235 12.5953C176.562 12.2044 175.802 12.0089 174.953 12.0089C174.091 12.0089 173.323 12.2044 172.65 12.5953C171.977 12.9717 171.451 13.5001 171.07 14.1806C170.69 14.8466 170.5 15.5994 170.5 16.4391C170.5 17.2788 170.69 18.0389 171.07 18.7193C171.451 19.3998 171.977 19.9354 172.65 20.3263C173.323 20.7028 174.091 20.891 174.953 20.891C175.802 20.891 176.562 20.7028 177.235 20.3263C177.908 19.9354 178.434 19.3998 178.815 18.7193C179.195 18.0389 179.385 17.2788 179.385 16.4391C179.385 15.5994 179.195 14.8466 178.815 14.1806C178.434 13.5001 177.908 12.9717 177.235 12.5953ZM177.498 19.0234C176.855 19.6893 176.007 20.0223 174.953 20.0223C173.886 20.0223 173.03 19.6893 172.387 19.0234C171.758 18.3574 171.443 17.4959 171.443 16.4391C171.443 15.3822 171.758 14.5208 172.387 13.8548C173.03 13.1888 173.886 12.8559 174.953 12.8559C176.007 12.8559 176.855 13.1888 177.498 13.8548C178.157 14.5208 178.486 15.3822 178.486 16.4391C178.486 17.4959 178.157 18.3574 177.498 19.0234ZM176.643 16.4174C176.833 16.1712 176.928 15.8745 176.928 15.527C176.928 15.0782 176.774 14.7235 176.467 14.4629C176.175 14.2023 175.78 14.072 175.283 14.072H173.177V18.741H174.317V17.0037H174.69L175.743 18.741L177.126 18.7193L175.897 16.9169C176.219 16.8155 176.467 16.649 176.643 16.4174ZM175.217 16.0699H174.317V15.0926H175.217C175.378 15.0926 175.509 15.1361 175.612 15.2229C175.729 15.2953 175.787 15.4112 175.787 15.5704C175.787 15.7297 175.729 15.8527 175.612 15.9396C175.509 16.0265 175.378 16.0699 175.217 16.0699ZM170.4 35.0748L162.551 27.1469L169.99 21.3239H163.728L160.063 24.1944V12.0839H155.141V35.0748H160.063V30.7828L164.22 35.0748H170.4ZM121.253 25.288H117.288V35.0749H112.311V25.288H109.904V21.324H112.311V15.9385H117.288V21.324H121.253V25.288ZM94.9429 25.3406H90.9771V35.1275H86.0001V25.3406H83.5938V21.3766H86.0001V15.9911H90.9771V21.3766H94.9429V25.3406ZM59.8958 21.4839V23.1788C59.0207 22.0854 57.5441 21.1285 55.6023 21.1285C51.5552 21.1285 48.4648 24.3544 48.4648 28.291C48.4648 32.0636 51.6644 35.5902 55.6023 35.5902C57.5441 35.5902 59.0207 34.6608 59.8958 33.5671V35.2348H64.8728V21.4839H59.8958ZM60.1145 28.8104C59.8137 30.4507 58.5556 31.4895 56.9149 31.4895C54.8367 31.4895 53.6062 30.0679 53.6062 28.291C53.6062 26.3501 54.7272 25.2292 56.9149 25.2292C58.5556 25.2292 59.8137 26.2954 60.1145 27.9356V28.8104ZM76.761 21.399C74.8198 21.399 73.3431 22.3286 72.4405 23.4221V21.7544H67.5996V35.5053H72.5766V28.1788C72.8504 26.5385 73.8077 25.4997 75.2571 25.4997C76.8708 25.4997 77.308 26.1558 77.308 28.0421V35.5053H82.285V28.0421C82.285 23.8048 80.644 21.399 76.761 21.399ZM101.84 25.4206C101.84 25.0105 102.141 24.8191 103.453 24.8191C104.711 24.8191 105.915 25.1199 107.091 25.8033L108.704 22.5501C107.118 21.5933 105.477 21.1285 103.125 21.1285C99.7343 21.1285 96.7809 22.1674 96.7809 25.4479C96.7809 27.7989 98.6133 28.8378 100.664 29.5759C102.961 30.396 103.672 30.6967 103.672 31.2981C103.672 31.6809 103.289 31.8722 101.922 31.8722C100.801 31.8722 98.9416 31.3255 97.6563 30.5874L96.1523 34.0592C97.9022 35.0435 99.7615 35.5902 102.415 35.5902C105.969 35.5902 108.731 34.6608 108.731 31.1888C108.731 28.7011 106.981 27.7169 104.466 26.8695C102.278 26.1314 101.84 25.9399 101.84 25.4206ZM133.788 21.4839V23.1788C132.913 22.0854 131.436 21.1285 129.495 21.1285C125.448 21.1285 122.357 24.3544 122.357 28.291C122.357 32.0636 125.557 35.5902 129.495 35.5902C131.436 35.5902 132.913 34.6608 133.788 33.5671V35.2348H138.765V21.4839H133.788ZM134.007 28.8104C133.706 30.4507 132.448 31.4895 130.807 31.4895C128.729 31.4895 127.498 30.0679 127.498 28.291C127.498 26.3501 128.62 25.2292 130.807 25.2292C132.448 25.2292 133.706 26.2954 134.007 27.9356V28.8104ZM146.089 28.3183C146.089 30.2866 147.428 31.4895 149.233 31.4895C150.273 31.4895 151.339 31.3802 152.816 30.8334V35.0162C151.695 35.3988 150.382 35.5902 149.042 35.5902C144.749 35.5902 140.947 32.583 140.947 28.3183C140.947 23.9716 144.776 21.1285 149.042 21.1285C150.546 21.1285 151.558 21.3746 152.816 21.8393V25.9946C151.585 25.4752 150.218 25.2292 149.042 25.2292C147.128 25.2292 146.116 26.268 146.089 28.3183Z" fill="url(#paint0_radial_15474_22801)"/>
<path fill-rule="evenodd" clip-rule="evenodd" d="M30.4565 6.73263C31.9559 5.83188 33.8696 4.71442 35.5316 3.81441C36.3753 3.35754 37.1497 2.95904 37.7703 2.67369C38.0811 2.53084 38.3481 2.41873 38.5628 2.34216C38.7903 2.261 38.9202 2.23439 38.9718 2.23273C39.5134 2.21524 39.8001 1.86791 39.9165 1.56323C40.0385 1.24386 40.0295 0.854875 39.8711 0.551682C39.7913 0.398928 39.6642 0.250746 39.4712 0.151715C39.2686 0.0477546 39.0199 0.0119749 38.7491 0.0575065C38.4895 0.101171 38.2211 0.217025 37.9435 0.398131C37.6639 0.580548 37.3596 0.839263 37.0288 1.18747C34.9987 3.32389 31.8407 4.94863 30.5235 5.48952L30.4743 5.50969L30.4386 5.54156C30.3684 5.60405 30.2678 5.68307 30.1474 5.76291C29.9773 5.7068 29.7857 5.69717 29.6162 5.70805C29.3485 5.72514 29.064 5.79602 28.8144 5.89346C28.5654 5.99065 28.3267 6.12377 28.1646 6.28014C28.0043 6.43476 27.8877 6.64665 28.0003 6.86966L28.0007 6.87041C28.001 6.87124 28.0017 6.8729 28.0025 6.87547C28.0038 6.87954 28.0054 6.88526 28.0069 6.89298C28.0099 6.90859 28.0123 6.9295 28.013 6.95639C28.0146 7.01067 28.0095 7.08122 27.9968 7.16845C27.9713 7.3429 27.9173 7.56874 27.8389 7.83632C27.6823 8.37064 27.4336 9.05379 27.142 9.79021C26.713 10.8736 26.1938 12.0646 25.7454 13.0521C24.104 12.4999 22.2464 12.1934 20.1664 12.1863L20.1302 12.1863H20.1095L20.092 12.1864C18.0281 12.1935 16.183 12.4954 14.5509 13.0396C14.1062 12.0591 13.5943 10.8836 13.1704 9.81312C12.8788 9.07669 12.6302 8.39355 12.4736 7.85922C12.3951 7.59164 12.3411 7.36581 12.3156 7.19135C12.3029 7.10413 12.2979 7.03358 12.2994 6.9793C12.3002 6.95241 12.3026 6.93149 12.3056 6.91589C12.3071 6.90817 12.3086 6.90244 12.31 6.89838C12.3103 6.89718 12.3107 6.89622 12.311 6.8954L12.3111 6.89497C12.3113 6.89446 12.3115 6.89407 12.3116 6.89374L12.3118 6.89331L12.3121 6.89257C12.4247 6.66956 12.3081 6.45767 12.1478 6.30305C11.9858 6.14668 11.7471 6.01356 11.498 5.91637C11.2484 5.81893 10.9639 5.74805 10.6962 5.73095C10.5268 5.72008 10.3351 5.72971 10.165 5.78581C10.0446 5.70597 9.94401 5.62696 9.87384 5.56438L9.8381 5.53259L9.78892 5.51234C8.47175 4.97154 5.31369 3.3468 3.28363 1.21037C2.9528 0.862162 2.64849 0.603455 2.36892 0.42103C2.09135 0.239924 1.82294 0.12407 1.5633 0.0804054C1.29253 0.0348737 1.04378 0.0706534 0.841206 0.174614C0.648226 0.273645 0.521195 0.421826 0.441354 0.574581C0.2829 0.877774 0.273967 1.26677 0.395956 1.58613C0.512338 1.89081 0.798984 2.23814 1.34067 2.25563C1.39224 2.25729 1.52213 2.28391 1.74968 2.36506C1.9644 2.44163 2.23139 2.55374 2.54207 2.69659C3.16271 2.98194 3.93715 3.38042 4.78084 3.83731C6.44285 4.73732 8.35656 5.85478 9.85593 6.75554C9.9698 6.98536 10.167 7.25958 10.4618 7.58476C12.1944 9.49632 13.0006 11.8262 13.1844 12.7436L13.1924 12.783L13.219 12.8178C13.3096 12.9359 13.4273 13.1321 13.4827 13.3263C13.4935 13.3642 13.5013 13.3996 13.5064 13.4327C10.6259 14.6461 8.48747 16.6685 7.05294 19.1563C4.01969 20.3771 1.82375 23.9506 1.82375 28.1687C1.82375 32.2417 3.87116 35.7135 6.74283 37.0467C7.99928 39.8974 9.73531 42.3958 11.5176 44.3919C11.3348 45.68 11.3434 47.0284 11.4221 48.3244C11.4837 49.3401 11.6592 50.2919 12.1334 51.1988C12.4491 51.8027 12.8936 52.5305 13.5237 52.8495C13.6134 52.8949 13.6206 52.8835 13.5884 52.8245C13.3888 52.4592 13.2204 52.038 13.1449 51.6305C12.9994 50.8447 13.0339 50.0417 13.1264 49.2519C13.128 49.2384 13.1295 49.2245 13.1309 49.2106L13.1313 49.2077C13.1434 49.0914 13.1553 48.9771 13.225 49.1552C13.2323 49.1738 13.2416 49.209 13.2528 49.2519C13.2882 49.3866 13.3435 49.5969 13.4205 49.6057C13.4593 49.6101 13.4864 49.5603 13.5058 49.5245L13.506 49.5242L13.5071 49.5222L13.5083 49.5199C13.5488 49.4456 13.5808 49.3669 13.6128 49.2882C13.6359 49.2314 13.659 49.1746 13.6853 49.1193C13.9709 48.5202 14.3 47.9433 14.7082 47.4303C15.5923 48.1318 16.4165 48.669 17.1178 49.0199C17.1178 49.0199 18.9398 50.0508 20.2099 50.0303C21.4203 50.0107 23.1406 49.0199 23.1406 49.0199C23.8585 48.6607 24.7052 48.1063 25.613 47.3803C26.0398 47.9057 26.3812 48.5007 26.676 49.1194C26.7023 49.1746 26.7255 49.2314 26.7486 49.2882L26.7493 49.2901C26.7811 49.3681 26.8129 49.4462 26.8531 49.5199L26.8554 49.5242L26.8555 49.5245C26.875 49.5603 26.9021 49.6101 26.9408 49.6057C27.018 49.5969 27.0732 49.3866 27.1086 49.2519C27.1198 49.2091 27.1291 49.1739 27.1364 49.1552C27.2061 48.9771 27.218 49.0915 27.2301 49.2077C27.2317 49.2226 27.2333 49.2375 27.2349 49.2519C27.3275 50.0417 27.362 50.8447 27.2164 51.6305C27.141 52.0381 26.9726 52.4592 26.7731 52.8246C26.7408 52.8836 26.7479 52.8949 26.8377 52.8495C27.4677 52.5305 27.9122 51.8027 28.2281 51.1988C28.7022 50.292 28.8778 49.3401 28.9394 48.3244C29.0182 47.0252 29.0266 45.6733 28.8424 44.3823C28.8381 44.3524 28.8335 44.3226 28.8286 44.2931C30.5565 42.3402 32.2342 39.9165 33.4656 37.1593C36.4705 35.9178 38.6401 32.3621 38.6401 28.1693C38.6401 23.8303 36.3166 20.1735 33.1482 19.0579C31.7225 16.629 29.6187 14.6526 26.8008 13.4532C26.8047 13.4083 26.814 13.3584 26.8297 13.3034C26.8851 13.1092 27.0029 12.913 27.0934 12.7949L27.1201 12.7601L27.128 12.7207C27.3119 11.8033 28.118 9.47341 29.8507 7.56185C30.1454 7.23667 30.3426 6.96253 30.4565 6.73263Z" fill="url(#paint1_linear_15474_22801)"/>
<path fill-rule="evenodd" clip-rule="evenodd" d="M9.24259 36.4914C12.4959 36.4914 15.5692 33.063 15.5692 28.2312C15.5692 23.3993 12.4959 19.9708 9.24259 19.9708C5.98932 19.9708 2.91602 23.3993 2.91602 28.2312C2.91602 33.063 5.98932 36.4914 9.24259 36.4914ZM31.0058 36.4921C34.2591 36.4921 37.3324 33.0637 37.3324 28.2318C37.3324 23.3998 34.2591 19.9714 31.0058 19.9714C27.7525 19.9714 24.6792 23.3998 24.6792 28.2318C24.6792 33.0637 27.7525 36.4921 31.0058 36.4921Z" fill="white"/>
<defs>
<radialGradient id="paint0_radial_15474_22801" cx="0" cy="0" r="1" gradientUnits="userSpaceOnUse" gradientTransform="translate(55.1321 18.199) rotate(7.64043) scale(120.481 34.0083)">
<stop stop-color="#0239A3"/>
<stop offset="0.958333" stop-color="#5B7DE1"/>
</radialGradient>
<linearGradient id="paint1_linear_15474_22801" x1="20.1562" y1="0.0380859" x2="20.1562" y2="52.8773" gradientUnits="userSpaceOnUse">
<stop stop-color="#5B7DE1"/>
<stop offset="1" stop-color="#042582"/>
</linearGradient>
</defs>
</svg>
