<svg width="163" height="65" viewBox="0 0 163 65" fill="none" xmlns="http://www.w3.org/2000/svg">
<path d="M7.05217 64.2295V57.2274H4.93159V60.7547L2.49607 57.2274H0.3125V64.2295H2.43308V60.4713L5.01557 64.2295H7.05217Z" fill="#121212"/>
<path d="M23.9958 64.2295V62.4659H20.8044V61.5736H23.9223V59.8099H20.8044V58.9911H23.9958V57.2274H18.6839V64.2295H23.9958Z" fill="#121212"/>
<path d="M43.0044 64.2295L45.0095 57.2274H42.6265L41.7342 61.5106L40.6739 57.2274H39.0782L38.0179 61.5106L37.1151 57.2274H34.7426L36.7477 64.2295H38.9732L39.8761 60.2613L40.7789 64.2295H43.0044Z" fill="#121212"/>
<path d="M55.4141 63.2427C56.1594 63.9146 57.1777 64.3555 58.6684 64.3555C60.5475 64.3555 61.6918 63.4632 61.6918 61.92C61.6918 60.3033 59.9807 59.9674 58.8259 59.7679C58.0805 59.6419 57.7971 59.5475 57.7971 59.2745C57.7971 59.096 57.9126 58.9071 58.4375 58.9071C58.9938 58.9071 59.7812 59.138 60.3901 59.5999L61.5238 58.0987C60.726 57.4479 59.6972 57.1224 58.5529 57.1224C56.6318 57.1224 55.645 58.2037 55.645 59.39C55.645 61.1431 57.4087 61.4161 58.5634 61.626C59.2563 61.752 59.5502 61.8885 59.5502 62.1614C59.5502 62.4344 59.1723 62.5709 58.7734 62.5709C57.8286 62.5709 57.0412 62.1719 56.5163 61.668L55.4141 63.2427Z" fill="#121212"/>
<path d="M77.6621 64.2295V62.3819H75.0061V57.2274H72.8856V64.2295H77.6621Z" fill="#121212"/>
<path d="M94.3237 64.2295V62.4659H91.1323V61.5736H94.2502V59.8099H91.1323V58.9911H94.3237V57.2274H89.0118V64.2295H94.3237Z" fill="#121212"/>
<path d="M109.385 64.2295V59.0751H111.254V57.2274H105.385V59.0751H107.265V64.2295H109.385Z" fill="#121212"/>
<path d="M126.126 64.2295V59.0751H127.995V57.2274H122.127V59.0751H124.006V64.2295H126.126Z" fill="#121212"/>
<path d="M144.558 64.2295V62.4659H141.367V61.5736H144.484V59.8099H141.367V58.9911H144.558V57.2274H139.246V64.2295H144.558Z" fill="#121212"/>
<path d="M162.265 64.2295L160.995 61.752C161.551 61.4791 162.254 60.8387 162.254 59.6314C162.254 58.3192 161.372 57.2274 159.735 57.2274H155.998V64.2295H158.118V61.983H158.884L159.85 64.2295H162.265ZM160.102 59.5999C160.102 59.9884 159.766 60.2193 159.409 60.2193H158.118V58.9911H159.409C159.766 58.9911 160.102 59.222 160.102 59.5999Z" fill="#121212"/>
<path d="M8.97912 25.6782C5.94237 25.6782 3.74916 25.1117 2.3995 23.9786C1.04983 22.8456 0.375 21.019 0.375 18.499V16.0375H6.95462V19.1729C6.95462 20.4232 7.4867 21.0483 8.55086 21.0483C9.14783 21.0483 9.56311 20.9213 9.7967 20.6674C10.0303 20.3939 10.1471 19.9446 10.1471 19.3194C10.1471 18.499 10.0173 17.825 9.75777 17.2975C9.49822 16.7505 9.1608 16.3012 8.74552 15.9496C8.3562 15.5784 7.64243 15.0119 6.60423 14.25L3.72321 12.0816C1.49107 10.4406 0.375 8.62385 0.375 6.63125C0.375 4.48237 1.02388 2.85117 2.32163 1.73766C3.64534 0.60461 5.56602 0.0380859 8.08367 0.0380859C11.0945 0.0380859 13.2617 0.64368 14.5854 1.85487C15.9091 3.04652 16.571 4.92191 16.571 7.48104H9.75777L9.71884 5.75216C9.71884 5.42006 9.58906 5.15634 9.32951 4.96098C9.09592 4.76563 8.7585 4.66795 8.31726 4.66795C7.79816 4.66795 7.40883 4.7754 7.14928 4.99029C6.88973 5.20517 6.75996 5.4982 6.75996 5.86937C6.75996 6.68986 7.38288 7.53964 8.62872 8.41873L12.522 11.2318C13.4304 11.896 14.1831 12.5309 14.7801 13.1365C15.3771 13.7226 15.8572 14.4258 16.2206 15.2463C16.584 16.0473 16.7656 17.0045 16.7656 18.118C16.7656 20.599 16.1557 22.4842 14.9358 23.7735C13.7419 25.0433 11.7563 25.6782 8.97912 25.6782Z" fill="#121212"/>
<path d="M17.8144 25.4438V0.27251H30.0565V5.1368H24.6276V10.0304H29.784V14.7775H24.6276V20.5502H30.4847V25.4438H17.8144Z" fill="#121212"/>
<path d="M31.5402 0.27251H41.8184C43.4536 0.27251 44.7124 0.555772 45.5949 1.1223C46.5033 1.66928 47.1132 2.4507 47.4247 3.46653C47.7362 4.46283 47.8919 5.7424 47.8919 7.30522C47.8919 8.7313 47.6453 9.84481 47.1522 10.6458C46.659 11.4467 45.8025 12.0035 44.5826 12.316C45.5949 12.4723 46.3216 12.8532 46.7629 13.4588C47.23 14.0644 47.4636 14.8849 47.4636 15.9203L47.3858 25.4438H40.8451V15.598C40.8451 14.8947 40.6634 14.4454 40.3 14.25C39.9367 14.0547 39.2748 13.957 38.3145 13.957V25.4438H31.5402V0.27251ZM39.9496 9.59085C40.884 9.59085 41.3512 8.82897 41.3512 7.30522C41.3512 6.64102 41.3123 6.14287 41.2344 5.81077C41.1566 5.47867 41.0138 5.25401 40.8062 5.1368C40.5985 5.00005 40.3 4.93168 39.9107 4.93168H38.3534V9.59085H39.9496Z" fill="#121212"/>
<path d="M52.0017 25.4438L47.8749 0.243208H54.2598L56.7126 17.3854L58.8928 0.243208H65.2778L61.1509 25.4438H52.0017Z" fill="#121212"/>
<path d="M66.0078 25.4438V0.27251H78.2498V5.1368H72.821V10.0304H77.9773V14.7775H72.821V20.5502H78.6781V25.4438H66.0078Z" fill="#121212"/>
<path d="M79.7335 0.27251H90.0118C91.6469 0.27251 92.9058 0.555772 93.7882 1.1223C94.6967 1.66928 95.3066 2.4507 95.6181 3.46653C95.9295 4.46283 96.0853 5.7424 96.0853 7.30522C96.0853 8.7313 95.8387 9.84481 95.3455 10.6458C94.8524 11.4467 93.9959 12.0035 92.776 12.316C93.7882 12.4723 94.515 12.8532 94.9562 13.4588C95.4234 14.0644 95.657 14.8849 95.657 15.9203L95.5791 25.4438H89.0385V15.598C89.0385 14.8947 88.8568 14.4454 88.4934 14.25C88.13 14.0547 87.4682 13.957 86.5078 13.957V25.4438H79.7335V0.27251ZM88.143 9.59085C89.0774 9.59085 89.5446 8.82897 89.5446 7.30522C89.5446 6.64102 89.5056 6.14287 89.4278 5.81077C89.3499 5.47867 89.2072 5.25401 88.9995 5.1368C88.7919 5.00005 88.4934 4.93168 88.1041 4.93168H86.5468V9.59085H88.143Z" fill="#121212"/>
<path d="M97.1194 25.4438V0.27251H103.816V21.1655H110.707V25.4438H97.1194Z" fill="#121212"/>
<path d="M112.594 25.4438V0.27251H125.986V5.1368H119.407V10.0304H125.714V14.7775H119.407V20.5502H126.415V25.4438H112.594Z" fill="#121212"/>
<path d="M136.58 25.6782C133.544 25.6782 131.35 25.1117 130.001 23.9786C128.651 22.8456 127.976 21.019 127.976 18.499V16.0375H134.556V19.1729C134.556 20.4232 135.088 21.0483 136.152 21.0483C136.749 21.0483 137.164 20.9213 137.398 20.6674C137.632 20.3939 137.748 19.9446 137.748 19.3194C137.748 18.499 137.619 17.825 137.359 17.2975C137.099 16.7505 136.762 16.3012 136.347 15.9496C135.957 15.5784 135.244 15.0119 134.206 14.25L131.324 12.0816C129.092 10.4406 127.976 8.62385 127.976 6.63125C127.976 4.48237 128.625 2.85117 129.923 1.73766C131.247 0.60461 133.167 0.0380859 135.685 0.0380859C138.696 0.0380859 140.863 0.64368 142.187 1.85487C143.51 3.04652 144.172 4.92191 144.172 7.48104H137.359L137.32 5.75216C137.32 5.42006 137.19 5.15634 136.931 4.96098C136.697 4.76563 136.36 4.66795 135.919 4.66795C135.399 4.66795 135.01 4.7754 134.751 4.99029C134.491 5.20517 134.361 5.4982 134.361 5.86937C134.361 6.68986 134.984 7.53964 136.23 8.41873L140.123 11.2318C141.032 11.896 141.784 12.5309 142.381 13.1365C142.978 13.7226 143.458 14.4258 143.822 15.2463C144.185 16.0473 144.367 17.0045 144.367 18.118C144.367 20.599 143.757 22.4842 142.537 23.7735C141.343 25.0433 139.358 25.6782 136.58 25.6782Z" fill="#121212"/>
<path d="M154.526 25.6782C151.489 25.6782 149.296 25.1117 147.946 23.9786C146.597 22.8456 145.922 21.019 145.922 18.499V16.0375H152.501V19.1729C152.501 20.4232 153.033 21.0483 154.098 21.0483C154.695 21.0483 155.11 20.9213 155.343 20.6674C155.577 20.3939 155.694 19.9446 155.694 19.3194C155.694 18.499 155.564 17.825 155.305 17.2975C155.045 16.7505 154.708 16.3012 154.292 15.9496C153.903 15.5784 153.189 15.0119 152.151 14.25L149.27 12.0816C147.038 10.4406 145.922 8.62385 145.922 6.63125C145.922 4.48237 146.571 2.85117 147.868 1.73766C149.192 0.60461 151.113 0.0380859 153.63 0.0380859C156.641 0.0380859 158.809 0.64368 160.132 1.85487C161.456 3.04652 162.118 4.92191 162.118 7.48104H155.305L155.266 5.75216C155.266 5.42006 155.136 5.15634 154.876 4.96098C154.643 4.76563 154.305 4.66795 153.864 4.66795C153.345 4.66795 152.956 4.7754 152.696 4.99029C152.437 5.20517 152.307 5.4982 152.307 5.86937C152.307 6.68986 152.93 7.53964 154.176 8.41873L158.069 11.2318C158.977 11.896 159.73 12.5309 160.327 13.1365C160.924 13.7226 161.404 14.4258 161.767 15.2463C162.131 16.0473 162.312 17.0045 162.312 18.118C162.312 20.599 161.702 22.4842 160.483 23.7735C159.289 25.0433 157.303 25.6782 154.526 25.6782Z" fill="#121212"/>
<path d="M0.375 52.5561V27.3848H7.30054V47.446H19.023V52.5561H0.375Z" fill="url(#paint0_radial_15474_22887)"/>
<path d="M21.3938 52.5561V27.3848H30.1568V52.5561H21.3938Z" fill="url(#paint1_radial_15474_22887)"/>
<path d="M32.9312 52.5561V27.3848H44.7408L47.5435 42.7396L50.3463 27.3848H61.7735V52.5561H54.5115V34.4175L50.6577 52.5561H44.2027L40.1154 34.4175V52.5561H32.9312Z" fill="url(#paint2_radial_15474_22887)"/>
<path d="M64.2995 52.5561V27.3848H72.8324V52.5561H64.2995Z" fill="url(#paint3_radial_15474_22887)"/>
<path d="M81.4789 52.5561V32.2198H74.5168V27.3848H95.1363V32.2198H88.1743V52.5561H81.4789Z" fill="url(#paint4_radial_15474_22887)"/>
<path d="M97.1291 52.5561V27.3848H103.825V48.2778H110.715V52.5561H97.1291Z" fill="url(#paint5_radial_15474_22887)"/>
<path d="M112.601 52.5561V27.3848H125.992V32.2491H119.413V37.1427H125.719V41.8898H119.413V47.6625H126.42V52.5561H112.601Z" fill="url(#paint6_radial_15474_22887)"/>
<path d="M136.584 52.7905C133.548 52.7905 131.355 52.224 130.006 51.0909C128.656 49.9579 127.981 48.1313 127.981 45.6113V43.1498H134.56V46.2852C134.56 47.5355 135.092 48.1606 136.156 48.1606C136.753 48.1606 137.168 48.0336 137.402 47.7797C137.635 47.5062 137.752 47.0569 137.752 46.4317C137.752 45.6113 137.622 44.9373 137.363 44.4098C137.103 43.8628 136.766 43.4135 136.351 43.0619C135.961 42.6907 135.248 42.1242 134.21 41.3623L131.329 39.1939C129.097 37.5529 127.981 35.7362 127.981 33.7436C127.981 31.5947 128.63 29.9635 129.928 28.85C131.251 27.7169 133.172 27.1504 135.689 27.1504C138.699 27.1504 140.866 27.756 142.19 28.9672C143.513 30.1588 144.175 32.0342 144.175 34.5933H137.363L137.324 32.8645C137.324 32.5324 137.194 32.2686 136.935 32.0733C136.701 31.8779 136.364 31.7803 135.922 31.7803C135.403 31.7803 135.014 31.8877 134.755 32.1026C134.495 32.3175 134.365 32.6105 134.365 32.9817C134.365 33.8022 134.988 34.6519 136.234 35.531L140.127 38.3441C141.035 39.0083 141.787 39.6432 142.384 40.2488C142.981 40.8349 143.461 41.5381 143.825 42.3586C144.188 43.1596 144.37 44.1168 144.37 45.2303C144.37 47.7113 143.76 49.5965 142.54 50.8858C141.346 52.1556 139.361 52.7905 136.584 52.7905Z" fill="url(#paint7_radial_15474_22887)"/>
<path d="M154.527 52.7905C151.491 52.7905 149.298 52.224 147.948 51.0909C146.599 49.9579 145.924 48.1313 145.924 45.6113V43.1498H152.503V46.2852C152.503 47.5355 153.035 48.1606 154.099 48.1606C154.696 48.1606 155.111 48.0336 155.345 47.7797C155.578 47.5062 155.695 47.0569 155.695 46.4317C155.695 45.6113 155.565 44.9373 155.306 44.4098C155.046 43.8628 154.709 43.4135 154.294 43.0619C153.904 42.6907 153.191 42.1242 152.153 41.3623L149.272 39.1939C147.04 37.5529 145.924 35.7362 145.924 33.7436C145.924 31.5947 146.573 29.9635 147.871 28.85C149.194 27.7169 151.114 27.1504 153.632 27.1504C156.642 27.1504 158.809 27.756 160.133 28.9672C161.456 30.1588 162.118 32.0342 162.118 34.5933H155.306L155.267 32.8645C155.267 32.5324 155.137 32.2686 154.877 32.0733C154.644 31.8779 154.306 31.7803 153.865 31.7803C153.346 31.7803 152.957 31.8877 152.697 32.1026C152.438 32.3175 152.308 32.6105 152.308 32.9817C152.308 33.8022 152.931 34.6519 154.177 35.531L158.069 38.3441C158.978 39.0083 159.73 39.6432 160.327 40.2488C160.924 40.8349 161.404 41.5381 161.767 42.3586C162.131 43.1596 162.312 44.1168 162.312 45.2303C162.312 47.7113 161.703 49.5965 160.483 50.8858C159.289 52.1556 157.304 52.7905 154.527 52.7905Z" fill="url(#paint8_radial_15474_22887)"/>
<defs>
<radialGradient id="paint0_radial_15474_22887" cx="0" cy="0" r="1" gradientUnits="userSpaceOnUse" gradientTransform="translate(0.375007 31.2859) rotate(7.31254) scale(157.228 32.2069)">
<stop stop-color="#042582"/>
<stop offset="0.958333" stop-color="#345ACA"/>
</radialGradient>
<radialGradient id="paint1_radial_15474_22887" cx="0" cy="0" r="1" gradientUnits="userSpaceOnUse" gradientTransform="translate(0.375007 31.2859) rotate(7.31254) scale(157.228 32.2069)">
<stop stop-color="#042582"/>
<stop offset="0.958333" stop-color="#345ACA"/>
</radialGradient>
<radialGradient id="paint2_radial_15474_22887" cx="0" cy="0" r="1" gradientUnits="userSpaceOnUse" gradientTransform="translate(0.375007 31.2859) rotate(7.31254) scale(157.228 32.2069)">
<stop stop-color="#042582"/>
<stop offset="0.958333" stop-color="#345ACA"/>
</radialGradient>
<radialGradient id="paint3_radial_15474_22887" cx="0" cy="0" r="1" gradientUnits="userSpaceOnUse" gradientTransform="translate(0.375007 31.2859) rotate(7.31254) scale(157.228 32.2069)">
<stop stop-color="#042582"/>
<stop offset="0.958333" stop-color="#345ACA"/>
</radialGradient>
<radialGradient id="paint4_radial_15474_22887" cx="0" cy="0" r="1" gradientUnits="userSpaceOnUse" gradientTransform="translate(0.375007 31.2859) rotate(7.31254) scale(157.228 32.2069)">
<stop stop-color="#042582"/>
<stop offset="0.958333" stop-color="#345ACA"/>
</radialGradient>
<radialGradient id="paint5_radial_15474_22887" cx="0" cy="0" r="1" gradientUnits="userSpaceOnUse" gradientTransform="translate(0.375007 31.2859) rotate(7.31254) scale(157.228 32.2069)">
<stop stop-color="#042582"/>
<stop offset="0.958333" stop-color="#345ACA"/>
</radialGradient>
<radialGradient id="paint6_radial_15474_22887" cx="0" cy="0" r="1" gradientUnits="userSpaceOnUse" gradientTransform="translate(0.375007 31.2859) rotate(7.31254) scale(157.228 32.2069)">
<stop stop-color="#042582"/>
<stop offset="0.958333" stop-color="#345ACA"/>
</radialGradient>
<radialGradient id="paint7_radial_15474_22887" cx="0" cy="0" r="1" gradientUnits="userSpaceOnUse" gradientTransform="translate(0.375007 31.2859) rotate(7.31254) scale(157.228 32.2069)">
<stop stop-color="#042582"/>
<stop offset="0.958333" stop-color="#345ACA"/>
</radialGradient>
<radialGradient id="paint8_radial_15474_22887" cx="0" cy="0" r="1" gradientUnits="userSpaceOnUse" gradientTransform="translate(0.375007 31.2859) rotate(7.31254) scale(157.228 32.2069)">
<stop stop-color="#042582"/>
<stop offset="0.958333" stop-color="#345ACA"/>
</radialGradient>
</defs>
</svg>
