<svg width="129" height="36" viewBox="0 0 129 36" fill="none" xmlns="http://www.w3.org/2000/svg">
<path fill-rule="evenodd" clip-rule="evenodd" d="M20.041 5.12849C21.0223 4.53896 22.2748 3.80762 23.3625 3.21858C23.9147 2.91957 24.4216 2.65876 24.8277 2.47201C25.0311 2.37852 25.2058 2.30514 25.3464 2.25503C25.4953 2.20192 25.5803 2.1845 25.6141 2.18341C25.9686 2.17196 26.1561 1.94464 26.2324 1.74524C26.3122 1.53622 26.3063 1.28164 26.2026 1.08321C26.1504 0.983233 26.0672 0.886251 25.9409 0.821438C25.8083 0.753398 25.6455 0.729981 25.4683 0.759781C25.2984 0.788358 25.1227 0.864182 24.9411 0.982711C24.7581 1.1021 24.5589 1.27142 24.3424 1.49932C23.0138 2.89755 20.9469 3.9609 20.0849 4.3149L20.0527 4.3281L20.0293 4.34896C19.9834 4.38986 19.9175 4.44157 19.8387 4.49383C19.7274 4.45711 19.602 4.4508 19.4911 4.45792C19.3159 4.46911 19.1297 4.5155 18.9663 4.57927C18.8033 4.64288 18.6471 4.73 18.541 4.83234C18.4361 4.93354 18.3598 5.07221 18.4335 5.21817L18.4337 5.21866C18.4339 5.2192 18.4344 5.22029 18.4349 5.22197C18.4358 5.22463 18.4368 5.22838 18.4378 5.23343C18.4397 5.24364 18.4413 5.25733 18.4418 5.27493C18.4428 5.31046 18.4395 5.35663 18.4312 5.41372C18.4145 5.52789 18.3792 5.6757 18.3278 5.85082C18.2253 6.20053 18.0626 6.64762 17.8718 7.1296C17.591 7.83864 17.2512 8.61813 16.9577 9.26446C15.8835 8.90302 14.6677 8.70243 13.3064 8.69776L13.2827 8.69781H13.2692L13.2577 8.69787C11.9069 8.7025 10.6993 8.90005 9.6312 9.25624C9.34016 8.61452 9.00514 7.84517 8.72768 7.14459C8.53684 6.66262 8.37411 6.21552 8.27164 5.86581C8.22029 5.69069 8.18495 5.54289 8.16824 5.42871C8.15993 5.37162 8.15662 5.32545 8.15765 5.28992C8.15814 5.27232 8.15971 5.25864 8.16167 5.24842C8.16264 5.24337 8.16368 5.23962 8.16454 5.23696C8.16477 5.23618 8.16501 5.23555 8.1652 5.23501L8.1653 5.23474C8.16542 5.2344 8.16553 5.23414 8.16562 5.23393L8.16574 5.23365L8.16596 5.23316C8.23967 5.08721 8.16335 4.94853 8.05843 4.84733C7.95237 4.745 7.79616 4.65787 7.63316 4.59426C7.46978 4.53049 7.2836 4.4841 7.10839 4.47291C6.9975 4.4658 6.87206 4.4721 6.76074 4.50882C6.68193 4.45656 6.61608 4.40485 6.57017 4.36389L6.54677 4.34309L6.51458 4.32984C5.65253 3.9759 3.58566 2.91254 2.25703 1.5143C2.04051 1.28641 1.84135 1.11709 1.65837 0.997698C1.47671 0.879168 1.30105 0.803345 1.13112 0.774767C0.953909 0.744968 0.791106 0.768385 0.658525 0.836425C0.532224 0.901238 0.449086 0.998219 0.396832 1.09819C0.293127 1.29663 0.287281 1.55121 0.36712 1.76023C0.443289 1.95963 0.630892 2.18695 0.985412 2.1984C1.01916 2.19949 1.10417 2.21691 1.2531 2.27001C1.39363 2.32013 1.56836 2.3935 1.7717 2.487C2.17789 2.67375 2.68474 2.93455 3.23692 3.23357C4.32466 3.82261 5.57714 4.55396 6.55844 5.14348C6.63297 5.29389 6.76204 5.47336 6.95495 5.68618C8.08893 6.93725 8.61652 8.46209 8.73686 9.06254L8.74207 9.08834L8.75949 9.1111C8.81876 9.18839 8.89584 9.3168 8.9321 9.44391C8.93916 9.46867 8.94427 9.49187 8.94759 9.51351C7.06237 10.3076 5.66282 11.6313 4.72396 13.2595C2.73877 14.0585 1.30158 16.3972 1.30158 19.1579C1.30158 21.8235 2.64155 24.0958 4.52099 24.9683C5.34331 26.834 6.4795 28.4692 7.64599 29.7755C7.52631 30.6186 7.53195 31.5011 7.58344 32.3493C7.62376 33.014 7.73862 33.6369 8.04898 34.2305C8.25562 34.6257 8.54655 35.1021 8.95891 35.3108C9.01764 35.3405 9.02231 35.3331 9.00125 35.2945C8.8706 35.0554 8.76041 34.7798 8.71102 34.5131C8.61576 33.9988 8.63834 33.4732 8.69891 32.9563C8.69993 32.9475 8.7009 32.9384 8.70186 32.9293L8.70206 32.9274C8.70999 32.8513 8.7178 32.7764 8.7634 32.893C8.76817 32.9052 8.77425 32.9282 8.78158 32.9563C8.80476 33.0445 8.84096 33.1821 8.89139 33.1878C8.91674 33.1908 8.93446 33.1581 8.94721 33.1347L8.94729 33.1345L8.94802 33.1332L8.94881 33.1317C8.97535 33.0831 8.9963 33.0316 9.01725 32.9801C9.03234 32.9429 9.04749 32.9057 9.0647 32.8695C9.25156 32.4774 9.467 32.0999 9.73416 31.7641C10.3127 32.2232 10.8522 32.5748 11.3112 32.8044C11.3112 32.8044 12.5036 33.4792 13.3348 33.4657C14.127 33.453 15.2529 32.8044 15.2529 32.8044C15.7228 32.5694 16.2769 32.2065 16.871 31.7314C17.1504 32.0753 17.3738 32.4647 17.5668 32.8696C17.584 32.9057 17.5991 32.9429 17.6143 32.9801L17.6148 32.9813C17.6356 33.0324 17.6563 33.0834 17.6827 33.1317L17.6842 33.1345L17.6843 33.1347C17.697 33.1581 17.7147 33.1908 17.7401 33.1878C17.7906 33.1821 17.8267 33.0445 17.8499 32.9563C17.8572 32.9283 17.8633 32.9053 17.8681 32.893C17.9137 32.7764 17.9215 32.8513 17.9294 32.9274C17.9304 32.9371 17.9315 32.9469 17.9326 32.9563C17.9931 33.4732 18.0157 33.9988 17.9205 34.5131C17.8711 34.7798 17.7609 35.0554 17.6303 35.2945C17.6092 35.3332 17.6138 35.3405 17.6726 35.3108C18.0849 35.1021 18.3759 34.6257 18.5826 34.2305C18.8929 33.637 19.0078 33.014 19.0481 32.3493C19.0997 31.499 19.1052 30.6142 18.9846 29.7693C18.9818 29.7497 18.9788 29.7302 18.9756 29.7109C20.1065 28.4328 21.2045 26.8465 22.0104 25.042C23.9771 24.2295 25.397 21.9023 25.397 19.1583C25.397 16.3185 23.8763 13.9252 21.8027 13.195C20.8696 11.6054 19.4927 10.3119 17.6484 9.52693C17.651 9.49753 17.6571 9.46487 17.6674 9.42892C17.7036 9.30181 17.7807 9.1734 17.84 9.0961L17.8574 9.07335L17.8626 9.04754C17.9829 8.4471 18.5105 6.92226 19.6445 5.67119C19.8374 5.45837 19.9665 5.27895 20.041 5.12849Z" fill="#042582"/>
<path fill-rule="evenodd" clip-rule="evenodd" d="M6.15621 24.6053C8.28545 24.6053 10.2969 22.3615 10.2969 19.1992C10.2969 16.0368 8.28545 13.793 6.15621 13.793C4.02703 13.793 2.01562 16.0368 2.01562 19.1992C2.01562 22.3615 4.02703 24.6053 6.15621 24.6053ZM20.3997 24.6057C22.5289 24.6057 24.5403 22.3619 24.5403 19.1996C24.5403 16.0372 22.5289 13.7934 20.3997 13.7934C18.2705 13.7934 16.2591 16.0372 16.2591 19.1996C16.2591 22.3619 18.2705 24.6057 20.3997 24.6057Z" fill="white"/>
<path d="M125.284 11.2761C125.894 11.2761 126.441 11.4167 126.925 11.6977C127.409 11.9684 127.787 12.3484 128.061 12.8376C128.334 13.3165 128.471 13.8578 128.471 14.4616C128.471 15.0654 128.334 15.6119 128.061 16.1012C127.787 16.5904 127.409 16.9756 126.925 17.2567C126.441 17.5273 125.894 17.6627 125.284 17.6627C124.664 17.6627 124.112 17.5273 123.628 17.2567C123.144 16.9756 122.766 16.5904 122.492 16.1012C122.219 15.6119 122.082 15.0654 122.082 14.4616C122.082 13.8578 122.219 13.3165 122.492 12.8376C122.766 12.3484 123.144 11.9684 123.628 11.6977C124.112 11.4167 124.664 11.2761 125.284 11.2761ZM125.284 17.0381C126.042 17.0381 126.651 16.7987 127.114 16.3198C127.587 15.8409 127.824 15.2215 127.824 14.4616C127.824 13.7017 127.587 13.0823 127.114 12.6034C126.651 12.1245 126.042 11.8851 125.284 11.8851C124.517 11.8851 123.901 12.1245 123.439 12.6034C122.986 13.0823 122.76 13.7017 122.76 14.4616C122.76 15.2215 122.986 15.8409 123.439 16.3198C123.901 16.7987 124.517 17.0381 125.284 17.0381ZM126.704 13.8058C126.704 14.0556 126.636 14.269 126.499 14.446C126.373 14.6126 126.194 14.7323 125.963 14.8051L126.846 16.1012L125.852 16.1168L125.095 14.8676H124.827V16.1168H124.007V12.7596H125.521C125.878 12.7596 126.162 12.8533 126.373 13.0406C126.594 13.228 126.704 13.4831 126.704 13.8058ZM124.827 14.1961H125.474C125.589 14.1961 125.684 14.1649 125.758 14.1024C125.842 14.04 125.884 13.9515 125.884 13.837C125.884 13.7225 125.842 13.6392 125.758 13.5871C125.684 13.5247 125.589 13.4935 125.474 13.4935H124.827V14.1961Z" fill="#042582"/>
<path d="M40.4143 13.013L45.4554 26.5261H41.2768L40.5485 24.2835H36.1591L35.4307 26.5261H31.3097L36.3316 13.013H40.4143ZM39.7818 21.4084L38.3634 16.8848L36.945 21.4084H39.7818ZM52.9682 16.6357C55.6899 16.6357 56.84 18.3224 56.84 21.2934V26.5261H53.3515V21.2934C53.3515 19.9708 53.0448 19.5108 51.9139 19.5108C50.8981 19.5108 50.2272 20.2392 50.0355 21.3892V26.5261H46.547V16.8848H49.9397V18.0541C50.5722 17.2873 51.6073 16.6357 52.9682 16.6357ZM63.1809 19.6641V26.5261H59.6924V19.6641H58.0056V16.8848H59.6924V13.1088H63.1809V16.8848H65.9602V19.6641H63.1809ZM71.2372 16.904C71.2372 17.4599 71.8314 17.6899 74.1124 18.3416C77.4667 19.2808 78.4443 20.5842 78.4443 22.6159C78.4443 25.7019 75.8375 26.7753 72.4065 26.7753C70.1447 26.7753 68.1896 26.2386 66.637 25.2611L67.9404 22.3093C69.2247 23.0376 70.5856 23.5168 72.2148 23.5168C73.9015 23.5168 74.4766 23.3251 74.4766 22.7693C74.4766 22.1367 73.9974 21.8301 71.2372 21.0442C68.3238 20.22 67.2696 18.8974 67.2696 16.8848C67.2696 14.3164 69.2055 12.8596 72.8857 12.8596C74.7833 12.8596 76.3933 13.243 78.0609 14.278L76.6042 16.9998C75.4349 16.3673 74.3999 16.0415 73.0582 16.0415C71.6781 16.0415 71.2372 16.2906 71.2372 16.904ZM84.4262 19.6641V26.5261H80.9377V19.6641H79.2509V16.8848H80.9377V13.1088H84.4262V16.8848H87.2055V19.6641H84.4262ZM95.9925 16.8848H99.481V26.5261H95.9925V25.3569C95.3791 26.1236 94.3441 26.7753 92.9832 26.7753C90.223 26.7753 87.9804 24.3027 87.9804 21.6576C87.9804 18.8974 90.1464 16.6357 92.9832 16.6357C94.3441 16.6357 95.3791 17.3065 95.9925 18.0732V16.8848ZM96.1458 22.0217V21.4084C95.935 20.2583 95.0533 19.5108 93.9032 19.5108C92.3698 19.5108 91.5839 20.2967 91.5839 21.6576C91.5839 22.9035 92.4465 23.9002 93.9032 23.9002C95.0533 23.9002 95.935 23.1718 96.1458 22.0217ZM106.816 23.9002C107.545 23.9002 108.292 23.8235 109.327 23.4401V26.3728C108.541 26.6411 107.621 26.7753 106.682 26.7753C103.673 26.7753 101.008 24.6669 101.008 21.6767C101.008 18.6291 103.692 16.6357 106.682 16.6357C107.736 16.6357 108.445 16.8082 109.327 17.134V20.0475C108.465 19.6833 107.506 19.5108 106.682 19.5108C105.34 19.5108 104.631 20.2392 104.612 21.6767C104.612 23.0568 105.551 23.9002 106.816 23.9002ZM121.652 26.5261H117.32L114.407 23.5168V26.5261H110.957V10.4062H114.407V18.8974L116.975 16.8848H121.365L116.151 20.9675L121.652 26.5261Z" fill="#042582"/>
</svg>
