<svg width="11" height="11" viewBox="0 0 11 11" fill="none" xmlns="http://www.w3.org/2000/svg">
<path d="M2.66129 0.812134H2.44012C1.50299 0.812134 0.673308 1.4998 0.726217 2.43544C0.969106 6.73066 5.04799 9.13901 7.70548 10.0081C8.094 10.1351 8.5143 10.0864 8.87991 9.90357C9.45163 9.61771 9.81277 9.03336 9.81277 8.39416V7.73077C9.81277 6.98427 9.27308 6.34718 8.53673 6.22446L8.13551 6.15759C7.78694 6.0995 7.43671 6.25123 7.24069 6.54525C6.99458 6.91441 6.51558 7.04809 6.12893 6.83047C5.62597 6.54739 4.96285 6.12722 4.56277 5.68713C4.25953 5.35357 3.96292 4.84963 3.75046 4.44818C3.55882 4.08606 3.68679 3.64612 4.02768 3.41886C4.3436 3.20825 4.47948 2.81224 4.35941 2.45204L4.1769 1.90452C3.95945 1.25216 3.34895 0.812134 2.66129 0.812134Z" stroke="#121212" stroke-width="0.5"/>
</svg>
